<svg xmlns="http://www.w3.org/2000/svg" xmlns:xlink="http://www.w3.org/1999/xlink" width="471.876" height="539" viewBox="0 0 471.876 539">
  <defs>
    <filter id="Trazado_1" x="173.876" y="0" width="124" height="136" filterUnits="userSpaceOnUse">
      <feOffset input="SourceAlpha"/>
      <feGaussianBlur stdDeviation="5" result="blur"/>
      <feFlood flood-color="#59cbe8"/>
      <feComposite operator="in" in2="blur"/>
      <feComposite in="SourceGraphic"/>
    </filter>
    <filter id="Trazado_2" x="103.888" y="84.087" width="88.951" height="68.503" filterUnits="userSpaceOnUse">
      <feOffset input="SourceAlpha"/>
      <feGaussianBlur stdDeviation="5" result="blur-2"/>
      <feFlood flood-color="#59cbe8"/>
      <feComposite operator="in" in2="blur-2"/>
      <feComposite in="SourceGraphic"/>
    </filter>
    <filter id="Trazado_3" x="278.138" y="84" width="89.474" height="68.445" filterUnits="userSpaceOnUse">
      <feOffset input="SourceAlpha"/>
      <feGaussianBlur stdDeviation="5" result="blur-3"/>
      <feFlood flood-color="#59cbe8"/>
      <feComposite operator="in" in2="blur-3"/>
      <feComposite in="SourceGraphic"/>
    </filter>
    <filter id="Trazado_4" x="0.099" y="100.388" width="122.777" height="136.612" filterUnits="userSpaceOnUse">
      <feOffset input="SourceAlpha"/>
      <feGaussianBlur stdDeviation="5" result="blur-4"/>
      <feFlood flood-color="#59cbe8"/>
      <feComposite operator="in" in2="blur-4"/>
      <feComposite in="SourceGraphic"/>
    </filter>
    <filter id="Trazado_5" x="348.876" y="100" width="123" height="137" filterUnits="userSpaceOnUse">
      <feOffset input="SourceAlpha"/>
      <feGaussianBlur stdDeviation="5" result="blur-5"/>
      <feFlood flood-color="#59cbe8"/>
      <feComposite operator="in" in2="blur-5"/>
      <feComposite in="SourceGraphic"/>
    </filter>
    <filter id="Trazado_6" x="143.751" y="167.099" width="182.625" height="204.901" filterUnits="userSpaceOnUse">
      <feOffset input="SourceAlpha"/>
      <feGaussianBlur stdDeviation="5" result="blur-6"/>
      <feFlood flood-color="#59cbe8"/>
      <feComposite operator="in" in2="blur-6"/>
      <feComposite in="SourceGraphic"/>
    </filter>
    <filter id="Trazado_7" x="103.954" y="184" width="59.664" height="52" filterUnits="userSpaceOnUse">
      <feOffset input="SourceAlpha"/>
      <feGaussianBlur stdDeviation="5" result="blur-7"/>
      <feFlood flood-color="#59cbe8"/>
      <feComposite operator="in" in2="blur-7"/>
      <feComposite in="SourceGraphic"/>
    </filter>
    <filter id="Trazado_8" x="308.049" y="184" width="59.826" height="52" filterUnits="userSpaceOnUse">
      <feOffset input="SourceAlpha"/>
      <feGaussianBlur stdDeviation="5" result="blur-8"/>
      <feFlood flood-color="#59cbe8"/>
      <feComposite operator="in" in2="blur-8"/>
      <feComposite in="SourceGraphic"/>
    </filter>
    <filter id="Trazado_9" x="0" y="302" width="122.876" height="136" filterUnits="userSpaceOnUse">
      <feOffset input="SourceAlpha"/>
      <feGaussianBlur stdDeviation="5" result="blur-9"/>
      <feFlood flood-color="#59cbe8"/>
      <feComposite operator="in" in2="blur-9"/>
      <feComposite in="SourceGraphic"/>
    </filter>
    <filter id="Trazado_10" x="349.009" y="302" width="122.867" height="136" filterUnits="userSpaceOnUse">
      <feOffset input="SourceAlpha"/>
      <feGaussianBlur stdDeviation="5" result="blur-10"/>
      <feFlood flood-color="#59cbe8"/>
      <feComposite operator="in" in2="blur-10"/>
      <feComposite in="SourceGraphic"/>
    </filter>
    <filter id="Trazado_11" x="103.769" y="303" width="60.053" height="51.175" filterUnits="userSpaceOnUse">
      <feOffset input="SourceAlpha"/>
      <feGaussianBlur stdDeviation="5" result="blur-11"/>
      <feFlood flood-color="#59cbe8"/>
      <feComposite operator="in" in2="blur-11"/>
      <feComposite in="SourceGraphic"/>
    </filter>
    <filter id="Trazado_12" x="308.024" y="303.094" width="59.878" height="50.986" filterUnits="userSpaceOnUse">
      <feOffset input="SourceAlpha"/>
      <feGaussianBlur stdDeviation="5" result="blur-12"/>
      <feFlood flood-color="#59cbe8"/>
      <feComposite operator="in" in2="blur-12"/>
      <feComposite in="SourceGraphic"/>
    </filter>
    <filter id="Trazado_13" x="103.954" y="386" width="88.912" height="69" filterUnits="userSpaceOnUse">
      <feOffset input="SourceAlpha"/>
      <feGaussianBlur stdDeviation="5" result="blur-13"/>
      <feFlood flood-color="#59cbe8"/>
      <feComposite operator="in" in2="blur-13"/>
      <feComposite in="SourceGraphic"/>
    </filter>
    <filter id="Trazado_14" x="278.1" y="386" width="89.776" height="69" filterUnits="userSpaceOnUse">
      <feOffset input="SourceAlpha"/>
      <feGaussianBlur stdDeviation="5" result="blur-14"/>
      <feFlood flood-color="#59cbe8"/>
      <feComposite operator="in" in2="blur-14"/>
      <feComposite in="SourceGraphic"/>
    </filter>
    <filter id="Trazado_15" x="173.926" y="403.1" width="123.95" height="135.9" filterUnits="userSpaceOnUse">
      <feOffset input="SourceAlpha"/>
      <feGaussianBlur stdDeviation="5" result="blur-15"/>
      <feFlood flood-color="#59cbe8"/>
      <feComposite operator="in" in2="blur-15"/>
      <feComposite in="SourceGraphic"/>
    </filter>
  </defs>
  <g id="Grupo_1" data-name="Grupo 1" transform="translate(-1276 -157)">
    <g transform="matrix(1, 0, 0, 1, 1276, 157)" filter="url(#Trazado_1)">
      <path id="Trazado_1-2" data-name="Trazado 1" d="M231.1-496.6c-11.7,6.8-21.7,13-22.2,13.7-.5.8-.9,13-.9,27.1v25.7l2.7,2.1c4.2,3.3,42.7,25,44.4,25,2.1,0,43.1-23.7,45.2-26.1,1.5-1.9,1.7-4.8,1.7-27.5,0-23.8-.1-25.4-1.9-27.1-3.7-3.4-42.9-25.3-45.3-25.3C253.5-509,242.9-503.4,231.1-496.6Zm38.9,7.2c8.3,4.8,15,9,15,9.3-.1.8-28.7,17.1-30,17.1-1.8,0-30-16.4-29.7-17.3.2-.6,28.2-17.4,29.5-17.6C254.9-498,261.8-494.1,270-489.4Zm-20.2,53.8c.1,9.7-.1,17.6-.5,17.6-.5,0-7.3-3.8-15.3-8.4l-14.5-8.4-.3-18-.2-18.1,15.2,8.8,15.3,8.9ZM291-453.1v17.9l-14.8,8.6c-8.2,4.7-15.2,8.6-15.6,8.6-.3,0-.5-7.9-.4-17.6l.3-17.6,15-8.8c8.3-4.9,15.1-8.9,15.3-8.9C290.9-471,291-462.9,291-453.1Z" transform="translate(-19.12 524)" fill="#59cbe8"/>
    </g>
    <g transform="matrix(1, 0, 0, 1, 1276, 157)" filter="url(#Trazado_2)">
      <path id="Trazado_2-2" data-name="Trazado 2" d="M164.5-410.3c-13.7,8-25.3,15.1-25.7,15.7a5.182,5.182,0,0,0,1.6,7.1c2.3,1.5,2.7,1.5,6.3-.3,5.4-2.8,47.6-27.2,49.1-28.4,1.5-1.3,1.6-6,0-7.6a5.286,5.286,0,0,0-3.7-1.1C190.6-424.9,178.3-418.3,164.5-410.3Z" transform="translate(-19.12 524)" fill="#59cbe8"/>
    </g>
    <g transform="matrix(1, 0, 0, 1, 1276, 157)" filter="url(#Trazado_3)">
      <path id="Trazado_3-2" data-name="Trazado 3" d="M313.4-422.5c-1.5,2.2-1.5,2.7-.1,4.7,1.2,1.9,46.2,28.8,51.6,30.9,4.8,1.9,9.1-4.5,5.5-8.1-3.2-3.2-50.7-30-53.1-30A5.555,5.555,0,0,0,313.4-422.5Z" transform="translate(-19.12 524)" fill="#59cbe8"/>
    </g>
    <g transform="matrix(1, 0, 0, 1, 1276, 157)" filter="url(#Trazado_4)">
      <path id="Trazado_4-2" data-name="Trazado 4" d="M57.5-396.4c-12.1,7-22.3,13.2-22.7,13.8-.5.6-.7,13.2-.5,28l.2,26.9L57-314.9C69.3-307.8,79.9-302,80.5-302c1.3,0,42.4-23.6,44.8-25.7,1.5-1.5,1.7-4.1,1.7-27.8s-.2-26.3-1.7-27.7c-2.4-2.1-41.9-24.9-44.1-25.4C80.3-408.9,69.7-403.4,57.5-396.4Zm37.7,7.6c7.9,4.5,14.7,8.4,15.1,8.8.6.6-28.2,18-29.8,18-1.5,0-30.5-17.3-30-17.9,1-.9,28.9-17,29.7-17C80.7-397,87.4-393.3,95.2-388.8ZM60.3-361,75-352.6v35.7l-6.2-3.5c-3.5-2-10.5-6-15.5-8.9L44-334.5v-17.8c0-9.8.3-17.7.8-17.5C45.2-369.7,52.2-365.7,60.3-361Zm56.5,8.7-.3,17.7L107-329c-5.2,3.1-12.1,7.1-15.2,8.9L86-316.9v-35.7l14.8-8.6c8.1-4.7,15-8.7,15.5-8.7C116.7-370,116.9-362,116.8-352.3Z" transform="translate(-19.12 524)" fill="#59cbe8"/>
    </g>
    <g transform="matrix(1, 0, 0, 1, 1276, 157)" filter="url(#Trazado_5)">
      <path id="Trazado_5-2" data-name="Trazado 5" d="M407.5-396.9c-11.6,6.6-21.8,12.8-22.7,13.6-1.6,1.5-1.8,4.1-1.8,27.7,0,14.4.4,26.6.8,27.2.9,1.4,44.2,26.4,45.7,26.4,1.4,0,42.4-23.6,44.7-25.7,1.6-1.5,1.8-4,1.8-27.8,0-23.7-.2-26.3-1.7-27.8-2.4-2-43.5-25.7-44.8-25.7C428.9-409,419-403.6,407.5-396.9Zm36.8,8.1c7.8,4.5,14.6,8.4,15,8.8.7.6-28.2,18-29.8,18-1.2,0-30.5-17.3-30.1-17.7.9-.9,29.1-17.2,29.9-17.2C429.7-397,436.5-393.3,444.3-388.8Zm-35,27.8,14.7,8.4v35.7l-6.2-3.5c-3.5-2-10.5-6-15.5-8.9l-9.3-5.2v-17.8c0-9.8.4-17.7.8-17.5C394.3-369.7,401.3-365.7,409.3-361Zm56.5,8.7-.3,17.7L456-329c-5.2,3.1-12.1,7.1-15.2,8.9l-5.8,3.2v-35.7l14.8-8.6c8.1-4.7,15-8.7,15.5-8.7C465.7-370,465.9-362,465.8-352.3Z" transform="translate(-19.12 524)" fill="#59cbe8"/>
    </g>
    <g transform="matrix(1, 0, 0, 1, 1276, 157)" filter="url(#Trazado_6)">
      <path id="Trazado_6-2" data-name="Trazado 6" d="M216.5-321c-19.8,11.5-36.5,21.7-37.2,22.6-1.9,2.5-1.9,85.2,0,87.7C180.8-208.6,253-167,255-167c.8,0,18.2-9.7,38.5-21.4l37-21.4v-89.7l-36.9-21.2c-20.4-11.7-37.9-21.3-39-21.2C253.4-341.9,236.3-332.4,216.5-321Zm67.9,7.2c15.4,8.8,28.7,16.6,29.3,17.2,1,.9-6,5.3-28.7,18.4l-30,17.3-30-17.2c-16.5-9.5-29.6-17.7-29.2-18.1,1.7-1.7,57.7-33.8,59.1-33.8C255.6-330,268.9-322.7,284.4-313.8Zm-67.1,43.5c15,8.6,28.4,16.5,30,17.5l2.7,1.9v34.5c0,18.9-.2,34.4-.5,34.4s-14.1-7.8-30.5-17.2l-30-17.3v-34.7c0-19.2.2-34.8.6-34.8C189.9-286,202.3-279,217.3-270.3Zm103.7,19v34.8l-29.5,17c-16.3,9.3-30,17.1-30.5,17.3-.6.2-1-12.3-1-34.5v-34.8l29.8-17.2c16.3-9.5,30-17.2,30.5-17.3C320.7-286,321-270.4,321-251.3Z" transform="translate(-19.12 524)" fill="#59cbe8"/>
    </g>
    <g transform="matrix(1, 0, 0, 1, 1276, 157)" filter="url(#Trazado_7)">
      <path id="Trazado_7-2" data-name="Trazado 7" d="M140.2-323.4a4.737,4.737,0,0,0-.4,7.6c3.4,3,21,12.8,22.9,12.8,3,0,5.7-3.5,4.9-6.4-.4-1.8-3.5-4.1-12.1-9-6.3-3.6-11.8-6.6-12.2-6.6A8.154,8.154,0,0,0,140.2-323.4Z" transform="translate(-19.12 524)" fill="#59cbe8"/>
    </g>
    <g transform="matrix(1, 0, 0, 1, 1276, 157)" filter="url(#Trazado_8)">
      <path id="Trazado_8-2" data-name="Trazado 8" d="M354-318.2c-9.5,5.6-11.6,7.2-11.8,9.3-.3,3,2,5.9,4.8,5.9,1.9,0,20-10,23.3-12.8a5.823,5.823,0,0,0,1.7-3.8c0-2.2-3.3-5.4-5.5-5.4C366-325,360.3-321.9,354-318.2Z" transform="translate(-19.12 524)" fill="#59cbe8"/>
    </g>
    <g transform="matrix(1, 0, 0, 1, 1276, 157)" filter="url(#Trazado_9)">
      <path id="Trazado_9-2" data-name="Trazado 9" d="M56.5-194.2l-22,12.7-.3,27.1c-.2,24.8-.1,27.2,1.5,28.6,3.9,3.3,42.6,24.8,44.7,24.8,1.9,0,32.6-16.9,42.9-23.6L127-127v-26.4c0-21.7-.3-26.7-1.4-27.9C123-183.8,82.2-207,80.3-207,79.3-206.9,68.6-201.2,56.5-194.2Zm53.7,16c.9.9-28.9,17.8-30.5,17.4-3.2-.9-29.5-16.8-28.8-17.5.4-.4,7.2-4.5,15.2-9.1l14.4-8.3L95-187.3C103-182.6,109.8-178.5,110.2-178.2ZM61-158.9l14,8.1v35.7l-15.2-8.8-15.3-8.8-.3-17.8c-.2-15.8-.1-17.7,1.3-17.1C46.4-167.3,53.4-163.4,61-158.9Zm55.8,8.5-.3,17.6L101.2-124,86-115.2l.2-18,.3-18.1,14.5-8.3c8-4.6,14.8-8.4,15.3-8.4C116.7-168,116.9-160.1,116.8-150.4Z" transform="translate(-19.12 524)" fill="#59cbe8"/>
    </g>
    <g transform="matrix(1, 0, 0, 1, 1276, 157)" filter="url(#Trazado_10)">
      <path id="Trazado_10-2" data-name="Trazado 10" d="M405.5-194.2l-22,12.8-.3,27.1c-.2,23.3,0,27.2,1.3,28.3,4.1,3.4,43,25,45,25s40.9-21.6,45-25c1.3-1.1,1.5-5.2,1.5-27.4,0-19.5-.3-26.6-1.2-27.8-1.9-2.3-43.4-25.8-45.5-25.8C428.3-206.9,417.6-201.2,405.5-194.2Zm53.7,16c.6.6-25.9,16.5-28.9,17.4-1.8.5-31.3-16.6-30.4-17.5.5-.5,7.4-4.6,15.2-9.1l14.4-8.2,14.5,8.4C452-182.7,458.8-178.6,459.2-178.2ZM409-159.6l14.5,8.4.3,18,.2,18.1-15.2-8.8-15.3-8.8-.3-17.7c-.1-9.7.1-17.6.5-17.6C394.2-168,401-164.2,409-159.6Zm56.8,9.2-.3,17.6-15.3,8.9L435-115.1l.2-18.1.3-18,14.5-8.4c8-4.6,14.8-8.4,15.3-8.4C465.7-168,465.9-160.1,465.8-150.4Z" transform="translate(-19.12 524)" fill="#59cbe8"/>
    </g>
    <g transform="matrix(1, 0, 0, 1, 1276, 157)" filter="url(#Trazado_11)">
      <path id="Trazado_11-2" data-name="Trazado 11" d="M149.7-199.7c-11,6.3-13.3,8.9-11,12.5,2.3,3.8,4.8,3.3,16.4-3.4,6.2-3.5,11.6-7,12.1-7.6a5.18,5.18,0,0,0-4.5-7.8C161.5-206,155.6-203.2,149.7-199.7Z" transform="translate(-19.12 524)" fill="#59cbe8"/>
    </g>
    <g transform="matrix(1, 0, 0, 1, 1276, 157)" filter="url(#Trazado_12)">
      <path id="Trazado_12-2" data-name="Trazado 12" d="M343.1-204.6a6.14,6.14,0,0,0-.9,4.2c.3,2.4,2,3.8,11.3,9.2,11.5,6.7,15,7.7,17.2,4.6,3.2-4.3,1.3-6.4-13.4-14.7C348.8-206.2,345.1-207,343.1-204.6Z" transform="translate(-19.12 524)" fill="#59cbe8"/>
    </g>
    <g transform="matrix(1, 0, 0, 1, 1276, 157)" filter="url(#Trazado_13)">
      <path id="Trazado_13-2" data-name="Trazado 13" d="M140.2-121.4a4.737,4.737,0,0,0-.4,7.6c3.5,3.2,50.7,29.8,52.7,29.8a5.1,5.1,0,0,0,3.3-1.2c1.8-1.8,1.5-6.3-.5-8-2.3-1.9-50.9-29.8-52-29.8A8.154,8.154,0,0,0,140.2-121.4Z" transform="translate(-19.12 524)" fill="#59cbe8"/>
    </g>
    <g transform="matrix(1, 0, 0, 1, 1276, 157)" filter="url(#Trazado_14)">
      <path id="Trazado_14-2" data-name="Trazado 14" d="M340.5-108.5c-13.7,7.9-25.9,15.5-26.9,16.9-1.8,2.3-1.8,2.6-.2,5a5.242,5.242,0,0,0,3.8,2.6c2.1,0,49.4-26.6,53.1-29.8a5.823,5.823,0,0,0,1.7-3.8c0-2.2-3.3-5.4-5.5-5.4C366-123,354.3-116.5,340.5-108.5Z" transform="translate(-19.12 524)" fill="#59cbe8"/>
    </g>
    <g transform="matrix(1, 0, 0, 1, 1276, 157)" filter="url(#Trazado_15)">
      <path id="Trazado_15-2" data-name="Trazado 15" d="M231-93.4c-11.8,6.9-21.8,13-22.2,13.7-1,1.6-1,51.8,0,53.4,1.3,2,44,26.3,46.2,26.3s41-22,44.8-25.3c2.2-2,2.2-2.4,2.2-27.3,0-24.8,0-25.3-2.2-27.7-3.2-3.4-42.3-25.7-45-25.6C253.5-105.9,242.8-100.3,231-93.4ZM270.3-86c8.1,4.6,14.7,8.7,14.7,9s-6.8,4.4-15,9.1l-15.1,8.7L240-67.8c-8.3-4.8-15-8.9-15-9.2,0-.7,29.3-17.9,30-17.7C255.3-94.6,262.2-90.7,270.3-86ZM235-58.4l15,8.6v17.4c0,9.6-.4,17.4-.8,17.4-.5,0-7.4-3.7-15.3-8.3l-14.4-8.3-.3-17.7c-.1-9.7,0-17.7.3-17.7S226.8-63.1,235-58.4Zm55.8,9.1-.3,17.6L276-23.3c-7.9,4.5-14.8,8.3-15.2,8.3-.5,0-.8-7.8-.8-17.4V-49.8l14.8-8.6c8.1-4.7,15-8.6,15.5-8.6C290.7-67,290.9-59.1,290.8-49.3Z" transform="translate(-19.12 524)" fill="#59cbe8"/>
    </g>
  </g>
</svg>
