<svg xmlns="http://www.w3.org/2000/svg" xmlns:xlink="http://www.w3.org/1999/xlink" width="218.69" height="209.797" viewBox="0 0 218.69 209.797">
  <defs>
    <filter id="Elipse_1" x="65.763" y="0" width="87.167" height="58.227" filterUnits="userSpaceOnUse">
      <feOffset input="SourceAlpha"/>
      <feGaussianBlur stdDeviation="3" result="blur"/>
      <feFlood flood-color="#e93cac"/>
      <feComposite operator="in" in2="blur"/>
      <feComposite in="SourceGraphic"/>
    </filter>
    <filter id="Elipse_2" x="65.763" y="151.569" width="87.167" height="58.227" filterUnits="userSpaceOnUse">
      <feOffset input="SourceAlpha"/>
      <feGaussianBlur stdDeviation="3" result="blur-2"/>
      <feFlood flood-color="#e93cac"/>
      <feComposite operator="in" in2="blur-2"/>
      <feComposite in="SourceGraphic"/>
    </filter>
    <filter id="Elipse_3" x="0" y="17.999" width="87.444" height="98.026" filterUnits="userSpaceOnUse">
      <feOffset input="SourceAlpha"/>
      <feGaussianBlur stdDeviation="3" result="blur-3"/>
      <feFlood flood-color="#e93cac"/>
      <feComposite operator="in" in2="blur-3"/>
      <feComposite in="SourceGraphic"/>
    </filter>
    <filter id="Elipse_4" x="131.261" y="93.765" width="87.42" height="98.012" filterUnits="userSpaceOnUse">
      <feOffset input="SourceAlpha"/>
      <feGaussianBlur stdDeviation="3" result="blur-4"/>
      <feFlood flood-color="#e93cac"/>
      <feComposite operator="in" in2="blur-4"/>
      <feComposite in="SourceGraphic"/>
    </filter>
    <filter id="Elipse_5" x="0.009" y="93.772" width="87.444" height="98.026" filterUnits="userSpaceOnUse">
      <feOffset input="SourceAlpha"/>
      <feGaussianBlur stdDeviation="3" result="blur-5"/>
      <feFlood flood-color="#e93cac"/>
      <feComposite operator="in" in2="blur-5"/>
      <feComposite in="SourceGraphic"/>
    </filter>
    <filter id="Elipse_6" x="131.27" y="18.018" width="87.42" height="98.012" filterUnits="userSpaceOnUse">
      <feOffset input="SourceAlpha"/>
      <feGaussianBlur stdDeviation="3" result="blur-6"/>
      <feFlood flood-color="#e93cac"/>
      <feComposite operator="in" in2="blur-6"/>
      <feComposite in="SourceGraphic"/>
    </filter>
  </defs>
  <g id="Grupo_1" data-name="Grupo 1" transform="translate(303.345 -1037.9)">
    <g transform="matrix(1, 0, 0, 1, -303.35, 1037.9)" filter="url(#Elipse_1)">
      <ellipse id="Elipse_1-2" data-name="Elipse 1" cx="34.584" cy="20.114" rx="34.584" ry="20.114" transform="translate(74.76 9)" fill="#e6007a"/>
    </g>
    <g transform="matrix(1, 0, 0, 1, -303.35, 1037.9)" filter="url(#Elipse_2)">
      <ellipse id="Elipse_2-2" data-name="Elipse 2" cx="34.584" cy="20.114" rx="34.584" ry="20.114" transform="translate(74.76 160.57)" fill="#e6007a"/>
    </g>
    <g transform="matrix(1, 0, 0, 1, -303.35, 1037.9)" filter="url(#Elipse_3)">
      <ellipse id="Elipse_3-2" data-name="Elipse 3" cx="34.584" cy="20.127" rx="34.584" ry="20.127" transform="matrix(0.5, -0.87, 0.87, 0.5, 9, 86.9)" fill="#e6007a"/>
    </g>
    <g transform="matrix(1, 0, 0, 1, -303.35, 1037.9)" filter="url(#Elipse_4)">
      <ellipse id="Elipse_4-2" data-name="Elipse 4" cx="34.584" cy="20.114" rx="34.584" ry="20.114" transform="matrix(0.5, -0.87, 0.87, 0.5, 140.26, 162.66)" fill="#e6007a"/>
    </g>
    <g transform="matrix(1, 0, 0, 1, -303.35, 1037.9)" filter="url(#Elipse_5)">
      <ellipse id="Elipse_5-2" data-name="Elipse 5" cx="20.127" cy="34.584" rx="20.127" ry="34.584" transform="matrix(0.87, -0.5, 0.5, 0.87, 9.01, 122.9)" fill="#e6007a"/>
    </g>
    <g transform="matrix(1, 0, 0, 1, -303.35, 1037.9)" filter="url(#Elipse_6)">
      <ellipse id="Elipse_6-2" data-name="Elipse 6" cx="20.114" cy="34.584" rx="20.114" ry="34.584" transform="matrix(0.87, -0.5, 0.5, 0.87, 140.27, 47.13)" fill="#e6007a"/>
    </g>
  </g>
</svg>
