<svg xmlns="http://www.w3.org/2000/svg" xmlns:xlink="http://www.w3.org/1999/xlink" width="426" height="426" viewBox="0 0 426 426">
  <defs>
    <filter id="Elipse_1" x="0" y="0" width="426" height="426" filterUnits="userSpaceOnUse">
      <feOffset input="SourceAlpha"/>
      <feGaussianBlur stdDeviation="5" result="blur"/>
      <feFlood flood-color="#fff"/>
      <feComposite operator="in" in2="blur"/>
      <feComposite in="SourceGraphic"/>
    </filter>
    <linearGradient id="linear-gradient" x1="-0.207" y1="1" x2="0.5" y2="1" gradientUnits="objectBoundingBox">
      <stop offset="0" stop-color="#fff"/>
      <stop offset="0.218" stop-color="#c7c7c7"/>
      <stop offset="0.415" stop-color="#b7b7b7"/>
      <stop offset="0.606" stop-color="#a5a5a5"/>
      <stop offset="0.807" stop-color="#939393"/>
      <stop offset="1" stop-color="gray"/>
    </linearGradient>
  </defs>
  <g id="Grupo_36" data-name="Grupo 36" transform="translate(14.835 15.034)">
    <g id="Grupo_8" data-name="Grupo 8" transform="translate(0 0)">
      <g id="Grupo_9" data-name="Grupo 9">
        <g transform="matrix(1, 0, 0, 1, -14.83, -15.03)" filter="url(#Elipse_1)">
          <circle id="Elipse_1-2" data-name="Elipse 1" cx="198" cy="198" r="198" transform="translate(15 15)" fill="#fff"/>
        </g>
        <g id="Grupo_1" data-name="Grupo 1" transform="translate(62.28 83.37)" opacity="0.9">
          <g id="Grupo_6" data-name="Grupo 6" transform="translate(25.606 87.493)">
            <circle id="Elipse_6" data-name="Elipse 6" cx="6.981" cy="6.981" r="6.981" fill="url(#linear-gradient)"/>
            <rect id="Rectángulo_2" data-name="Rectángulo 2" width="197.815" height="13.962" rx="6.981" transform="translate(20.943)" fill="url(#linear-gradient)"/>
          </g>
          <g id="Grupo_7" data-name="Grupo 7" transform="translate(49.424)">
            <path id="Sustracción_1" data-name="Sustracción 1" d="M98.906,75.53c-26.131,0-50.776-7.841-69.395-22.077C10.914,39.232.433,20.249,0,0H197.813C197.379,20.25,186.9,39.232,168.3,53.452,149.681,67.689,125.036,75.53,98.906,75.53Z" transform="translate(197.813 75.53) rotate(180)" fill="url(#linear-gradient)"/>
          </g>
          <g id="Grupo_5" data-name="Grupo 5" transform="translate(0 111.787)">
            <circle id="Elipse_6-2" data-name="Elipse 6" cx="6.981" cy="6.981" r="6.981" fill="url(#linear-gradient)"/>
            <rect id="Rectángulo_2-2" data-name="Rectángulo 2" width="154.656" height="13.962" rx="6.981" transform="translate(20.943)" fill="url(#linear-gradient)"/>
          </g>
          <g id="Grupo_4" data-name="Grupo 4" transform="translate(25.606 140.131)">
            <circle id="Elipse_6-3" data-name="Elipse 6" cx="6.981" cy="6.981" r="6.981" fill="url(#linear-gradient)"/>
            <rect id="Rectángulo_2-3" data-name="Rectángulo 2" width="161.849" height="13.962" rx="6.981" transform="translate(20.943)" fill="url(#linear-gradient)"/>
          </g>
          <g id="Grupo_2" data-name="Grupo 2" transform="translate(120.929 191.853)">
            <circle id="Elipse_6-4" data-name="Elipse 6" cx="6.981" cy="6.981" r="6.981" transform="translate(0 0)" fill="url(#linear-gradient)"/>
            <rect id="Rectángulo_2-4" data-name="Rectángulo 2" width="89.916" height="13.962" rx="6.981" transform="translate(20.943 0)" fill="url(#linear-gradient)"/>
          </g>
          <g id="Grupo_1-2" data-name="Grupo 1" transform="translate(63.382 215.231)">
            <circle id="Elipse_6-5" data-name="Elipse 6" cx="6.981" cy="6.981" r="6.981" transform="translate(0 0)" fill="url(#linear-gradient)"/>
            <rect id="Rectángulo_2-5" data-name="Rectángulo 2" width="89.916" height="13.962" rx="6.981" transform="translate(20.943 0)" fill="url(#linear-gradient)"/>
          </g>
          <g id="Grupo_3" data-name="Grupo 3" transform="translate(16.626 168.474)">
            <circle id="Elipse_6-6" data-name="Elipse 6" cx="6.981" cy="6.981" r="6.981" fill="url(#linear-gradient)"/>
            <rect id="Rectángulo_2-6" data-name="Rectángulo 2" width="89.916" height="13.962" rx="6.981" transform="translate(20.943)" fill="url(#linear-gradient)"/>
            <rect id="Rectángulo_5" data-name="Rectángulo 5" width="116.891" height="13.962" rx="6.981" transform="translate(116.255)" fill="url(#linear-gradient)"/>
          </g>
        </g>
      </g>
    </g>
  </g>
</svg>
