<svg xmlns="http://www.w3.org/2000/svg" xmlns:xlink="http://www.w3.org/1999/xlink" width="441" height="441" viewBox="0 0 441 441">
  <defs>
    <linearGradient id="linear-gradient" x1="0.5" x2="0.5" y2="1" gradientUnits="objectBoundingBox">
      <stop offset="0" stop-color="#59cbe8"/>
      <stop offset="0.238" stop-color="#7ba9da"/>
      <stop offset="0.606" stop-color="#a381c9"/>
      <stop offset="0.807" stop-color="#c362bc"/>
      <stop offset="1" stop-color="#e93cac"/>
    </linearGradient>
    <filter id="Sustracci贸n_2" x="0" y="0" width="441" height="441" filterUnits="userSpaceOnUse">
      <feOffset input="SourceAlpha"/>
      <feGaussianBlur stdDeviation="7.5" result="blur"/>
      <feFlood flood-color="#e93cac" flood-opacity="0.702"/>
      <feComposite operator="in" in2="blur"/>
      <feComposite in="SourceGraphic"/>
    </filter>
  </defs>
  <g transform="matrix(1, 0, 0, 1, 0, 0)" filter="url(#Sustracci贸n_2)">
    <path id="Sustracci贸n_2-2" data-name="Sustracci贸n 2" d="M198,396a199.129,199.129,0,0,1-44.109-4.931A196.957,196.957,0,0,1,113.257,377H282.743a196.957,196.957,0,0,1-40.634,14.069A199.13,199.13,0,0,1,198,396Zm99.018-26.5H98.981a199.1,199.1,0,0,1-28.471-20H325.49a199.107,199.107,0,0,1-28.471,20Zm36.347-27H62.634a199.828,199.828,0,0,1-18.6-20H351.969a199.812,199.812,0,0,1-18.6,20ZM357.012,316H38.987a198.984,198.984,0,0,1-13.073-20H370.086a199,199,0,0,1-13.073,20Zm16.361-26H22.626A197.776,197.776,0,0,1,13.5,270h369a197.772,197.772,0,0,1-9.128,20Zm11-25H11.623a197.24,197.24,0,0,1-6.011-20H390.388a197.258,197.258,0,0,1-6.011,20Zm6.941-24H4.682a198.42,198.42,0,0,1-3.361-20H394.678a198.419,198.419,0,0,1-3.36,20Zm3.582-22H1.1C.4,212.4.036,205.671,0,199H396c-.033,6.678-.4,13.406-1.1,20Zm1.1-21H0a199.465,199.465,0,0,1,4.023-39.9A196.917,196.917,0,0,1,33.815,87.3,198.577,198.577,0,0,1,120.929,15.56,197.007,197.007,0,0,1,158.1,4.023a199.934,199.934,0,0,1,79.808,0,196.917,196.917,0,0,1,70.8,29.793,198.576,198.576,0,0,1,71.736,87.114A197.005,197.005,0,0,1,391.977,158.1,199.465,199.465,0,0,1,396,198Z" transform="translate(22.5 22.5)" fill="url(#linear-gradient)"/>
  </g>
</svg>
